<svg width="60" height="56" viewBox="0 0 60 56" fill="none" xmlns="http://www.w3.org/2000/svg">
<path d="M55.9834 43.4355L48.4434 39.0811C48.3195 39.0101 48.1828 38.9643 48.0412 38.9462C47.8996 38.9281 47.7559 38.938 47.6181 38.9755C47.4804 39.0129 47.3513 39.0771 47.2384 39.1645C47.1255 39.2518 47.0309 39.3605 46.96 39.4844L45.5996 41.8428C45.2988 42.3623 45.4766 43.0322 45.9961 43.333L53.5361 47.6875C53.66 47.7584 53.7967 47.8043 53.9382 47.8224C54.0798 47.8405 54.2236 47.8306 54.3614 47.7931C54.4991 47.7556 54.6281 47.6914 54.7411 47.6041C54.854 47.5168 54.9486 47.4081 55.0195 47.2842L56.3799 44.9258C56.6807 44.4062 56.4961 43.7363 55.9834 43.4355ZM46.9531 16.5156C47.024 16.6395 47.1187 16.7482 47.2316 16.8355C47.3445 16.9229 47.4735 16.9871 47.6113 17.0245C47.749 17.062 47.8928 17.0719 48.0344 17.0538C48.176 17.0357 48.3126 16.9899 48.4365 16.9189L55.9766 12.5645C56.4961 12.2637 56.6738 11.5938 56.373 11.0742L55.0195 8.72266C54.9486 8.59876 54.854 8.49005 54.7411 8.40273C54.6281 8.31541 54.4991 8.25119 54.3614 8.21374C54.2236 8.17629 54.0798 8.16634 53.9382 8.18445C53.7967 8.20257 53.66 8.24841 53.5361 8.31934L45.9961 12.6738C45.7464 12.8194 45.5646 13.0578 45.4903 13.3371C45.416 13.6164 45.4553 13.9137 45.5996 14.1641L46.9531 16.5156ZM58.8477 25.5391H50.0977C49.4961 25.5391 49.0039 26.0312 49.0039 26.6328V29.3672C49.0039 29.9688 49.4961 30.4609 50.0977 30.4609H58.8477C59.4492 30.4609 59.9414 29.9688 59.9414 29.3672V26.6328C59.9414 26.0312 59.4492 25.5391 58.8477 25.5391ZM37.7861 0.861328C37.3828 0.861328 36.9727 0.970703 36.5967 1.22363L12.3633 17.0625H1.15234C0.550781 17.0625 0.0585938 17.5547 0.0585938 18.1562V37.8438C0.0585938 38.4453 0.550781 38.9375 1.15234 38.9375H12.3633L36.5967 54.7764C36.9727 55.0225 37.3896 55.1387 37.7861 55.1387C38.9277 55.1387 39.9805 54.2295 39.9805 52.9443V3.05566C39.9805 1.77051 38.9277 0.861328 37.7861 0.861328Z" fill="#7F62FF"/>
</svg>
